<svg id="Layer_1" data-name="Layer 1" xmlns="http://www.w3.org/2000/svg" viewBox="0 0 150 150"><defs><style>.cls-1{fill:#633f98;}.cls-2{fill:#8b7eba;}.cls-3{fill:#aa68aa;}.cls-4{fill:#9b59a3;}.cls-5{fill:none;}.cls-6{fill:#231f20;}.cls-7{fill:#cd519c;}</style></defs><path class="cls-1" d="M76,150.81a73.39,73.39,0,0,1-47.61-17.54,16.52,16.52,0,0,1,10.44-4,11.63,11.63,0,0,1,1.34.08,11.92,11.92,0,0,1,5.29,2A9.71,9.71,0,0,0,51,133.27h.26c2.48-.07,3.7-1,5.38-2.2a23.4,23.4,0,0,1,5-3,28.11,28.11,0,0,1,11.07-2.2,28.72,28.72,0,0,1,12.67,2.86,13,13,0,0,1,3.85,2.72,7.63,7.63,0,0,0,3.32,2.1,13,13,0,0,0,4.45.78,23.48,23.48,0,0,0,6.28-1.11,23.63,23.63,0,0,1,6.4-1.13,13.15,13.15,0,0,1,3.35.42,19.07,19.07,0,0,1,7,3.58A72.69,72.69,0,0,1,76,150.81Z"/><path class="cls-1" d="M92.57,133.54c-3.69-1.31-2.7-2.59-7.17-4.83a29.26,29.26,0,0,0-23.73-.65c-5.56,2.41-6.11,5.11-10.43,5.22-5,.13-6.1-3.36-11.09-3.91a16.15,16.15,0,0,0-11.77,3.89,73.37,73.37,0,0,0,91.69,2.82,18.93,18.93,0,0,0-7-3.58C105.23,130.51,100.5,136.36,92.57,133.54Z"/><path class="cls-2" d="M120.07,136.09a19.25,19.25,0,0,0-7-3.59,13.47,13.47,0,0,0-3.34-.42,23.77,23.77,0,0,0-6.4,1.14A23.34,23.34,0,0,1,97,134.33a13,13,0,0,1-4.45-.78,7.66,7.66,0,0,1-3.34-2.11,12.92,12.92,0,0,0-3.84-2.72,28.84,28.84,0,0,0-12.66-2.85,28.06,28.06,0,0,0-11.06,2.2,23.84,23.84,0,0,0-5.05,3c-1.68,1.25-2.9,2.14-5.38,2.21H51a9.72,9.72,0,0,1-5.54-1.87,11.88,11.88,0,0,0-5.28-2,11.63,11.63,0,0,0-1.34-.08,16.59,16.59,0,0,0-10.43,4A72.46,72.46,0,0,1,20.07,125a24.56,24.56,0,0,1,8.73-7.6c3.11-1.69,6-2.3,11.74-3.52a59.39,59.39,0,0,1,6.35-1,17.81,17.81,0,0,0,5.25-1.2,17.58,17.58,0,0,0,6.15-3.89,7.26,7.26,0,0,1,5.49-2.49c2.54,0,4.37,1.45,6.49,3.14a22,22,0,0,0,9.26,4.94,16.08,16.08,0,0,0,3.64.45,19.72,19.72,0,0,0,5.64-1,27,27,0,0,1,8.12-1.31c1,0,2.09.06,3.2.17a20.3,20.3,0,0,1,7.23,2,49.68,49.68,0,0,0,8.69,3,77,77,0,0,0,14.82,2.2,26.32,26.32,0,0,1,5.26.66,73.32,73.32,0,0,1-16,16.65Z"/><path class="cls-2" d="M100.13,111.63c-10.75-1.11-12.57,3.58-20.6,1.7-9.08-2.13-10.81-9.09-17.08-8-4.06.74-3.89,3.76-10.3,6.26-3.84,1.5-4.82.78-11.61,2.22-5.75,1.22-8.63,1.83-11.73,3.52A24.81,24.81,0,0,0,20.08,125a73.1,73.1,0,0,0,8.3,8.3,16.15,16.15,0,0,1,11.77-3.89c5,.55,6.13,4,11.09,3.91,4.32-.11,4.87-2.81,10.43-5.22a29.26,29.26,0,0,1,23.73.65c4.47,2.24,3.48,3.52,7.17,4.83,7.93,2.82,12.66-3,20.47-1a18.93,18.93,0,0,1,7,3.58,73.9,73.9,0,0,0,16.06-16.63c-3.35-1-9.48-.18-20.09-2.86C106.5,114.17,106.81,112.32,100.13,111.63Z"/><path class="cls-3" d="M20.07,125A75.43,75.43,0,0,1,14,116.63c.8-.55,1.7-1,2.74-1.63a46.17,46.17,0,0,0,8.66-5.92,24.59,24.59,0,0,0,5.14-5.86,12.93,12.93,0,0,1,3.85-4.11c3.7-2.65,6.37-2.85,10.78-3.18a76.85,76.85,0,0,0,12.31-1.72,83.1,83.1,0,0,0,11.22-3.35c2.89-1,5-1.81,7.34-1.81a12.8,12.8,0,0,1,3.35.47A12.2,12.2,0,0,1,85,92.64a10.57,10.57,0,0,0,5.72,2.94A17.54,17.54,0,0,0,94,95.9c6.65,0,13.93-3.58,18.55-9.12a11.62,11.62,0,0,0,1.51-2.21,9.88,9.88,0,0,1,1.42-2.09c3.61-4.26,10.38-8.55,17.38-8.55a15.21,15.21,0,0,1,4.74.73c4.84,1.56,8.6,5.55,11.16,11.87a73.21,73.21,0,0,1-12.66,32.93,26.32,26.32,0,0,0-5.26-.66A77.18,77.18,0,0,1,116,116.6a48.94,48.94,0,0,1-8.69-3,20.46,20.46,0,0,0-7.22-2c-1.11-.11-2.19-.17-3.2-.17a27,27,0,0,0-8.12,1.31,19.59,19.59,0,0,1-5.64,1,16,16,0,0,1-3.64-.45,22,22,0,0,1-9.27-5c-2.12-1.68-4-3.13-6.48-3.13a7.73,7.73,0,0,0-1.33.12,7.58,7.58,0,0,0-4.15,2.36,17.57,17.57,0,0,1-6.15,3.9,17.8,17.8,0,0,1-5.26,1.2,59.39,59.39,0,0,0-6.35,1c-5.74,1.22-8.63,1.83-11.73,3.52A24.39,24.39,0,0,0,20.09,125h0Z"/><path class="cls-3" d="M137.62,74.66c-8.19-2.63-17.47,2.37-22.1,7.83-1.71,2-1.13,2.14-2.93,4.3-5,6-14,10.35-21.91,8.8-6-1.16-5.29-4.46-11.34-6.06-6.71-1.77-9.11,1.85-21.91,4.69-13.3,3-16.8.39-23.08,4.89-4.47,3.21-3,4.69-9,10-5,4.38-8.81,5.79-11.39,7.54A73.7,73.7,0,0,0,20.08,125a24.81,24.81,0,0,1,8.73-7.59c3.1-1.69,6-2.3,11.73-3.52,6.79-1.44,7.77-.72,11.61-2.22,6.41-2.5,6.24-5.52,10.3-6.26,6.27-1.13,8,5.83,17.08,8,8,1.88,9.85-2.81,20.6-1.7,6.68.69,6.37,2.54,15.91,5,10.61,2.68,16.74,1.85,20.09,2.86a73,73,0,0,0,12.66-32.91C146.88,81.84,143.56,76.58,137.62,74.66Z"/><path class="cls-4" d="M14,116.63a73.83,73.83,0,0,1-6.19-12.15c.41-.53.87-1.07,1.4-1.67A63.11,63.11,0,0,0,14.39,96a46.86,46.86,0,0,0,4.42-8,11.22,11.22,0,0,1,3-4.51c2.9-2.68,5.35-3.07,8.73-3.6a43,43,0,0,0,9.66-2.47A29.79,29.79,0,0,0,50.61,71a16.85,16.85,0,0,1,8.58-4.72,28.83,28.83,0,0,1,6.27-.67c5.83,0,13.16,1.77,16.23,6.74A11.62,11.62,0,0,1,83.2,77c.29,1.75.56,3.41,2.21,4.92a7.14,7.14,0,0,0,5.34,1.77l1.2,0,1.22,0a9.55,9.55,0,0,1,3.77.62c2.83,1.18,4.61,4.2,5.77,9.8A22.46,22.46,0,0,1,94,95.92h0a17.46,17.46,0,0,1-3.35-.32A10.57,10.57,0,0,1,85,92.65a12.29,12.29,0,0,0-5.62-3.11A12.73,12.73,0,0,0,76,89.07c-2.36,0-4.45.76-7.33,1.8a81.64,81.64,0,0,1-11.23,3.36A76.85,76.85,0,0,1,45.12,96c-4.41.33-7.07.52-10.77,3.17a13,13,0,0,0-3.84,4.12,24.9,24.9,0,0,1-5.15,5.86A46.17,46.17,0,0,1,16.7,115c-1,.58-1.94,1.08-2.73,1.62h0Z"/><path class="cls-4" d="M96.94,84.25c-3.93-1.64-8,.87-11.54-2.35-3-2.75-1.43-5.88-3.72-9.58-3.81-6.17-14.6-7.85-22.49-6.07-8.75,2-7.69,6.79-19,11.15-9.59,3.7-13.32,1.38-18.39,6.07-3.36,3.1-2,4.43-7.43,12.51a86.4,86.4,0,0,1-6.63,8.5A74.23,74.23,0,0,0,14,116.63c2.58-1.75,6.39-3.16,11.39-7.54,6-5.29,4.53-6.77,9-10,6.28-4.5,9.78-1.93,23.08-4.89,12.8-2.84,15.2-6.46,21.91-4.69,6,1.6,5.38,4.9,11.34,6.06a20.83,20.83,0,0,0,12-1.55C101.45,88,99.55,85.34,96.94,84.25Z"/><path class="cls-5" d="M18.81,88a11.09,11.09,0,0,1,3-4.52c2.9-2.68,5.35-3.07,8.73-3.6a43,43,0,0,0,9.66-2.47A29.79,29.79,0,0,0,50.61,71a16.85,16.85,0,0,1,8.58-4.72,29.16,29.16,0,0,1,6.23-.66A27.41,27.41,0,0,1,74.24,67c-5.37.73-7.64,1.73-9.76,3.21a14.56,14.56,0,0,0-4.76,5.25,14.69,14.69,0,0,1-4.83,5.32c-4.17,2.92-7.39,3.16-12.71,3.57a102.91,102.91,0,0,0-14.28,1.9c-3.65.76-6.64,1.39-9.21,2.07h0Z"/><path class="cls-5" d="M54.89,80.73c5.71-4,3.93-6.6,9.58-10.56,2-1.41,4.21-2.47,9.76-3.21a29.14,29.14,0,0,0-15-.71c-8.75,2-7.69,6.79-19,11.15-9.59,3.7-13.32,1.38-18.39,6.07a11.7,11.7,0,0,0-3.14,4.8c2.57-.68,5.6-1.32,9.2-2.07C43.35,83,47.88,85.63,54.89,80.73Z"/><path class="cls-6" d="M3.69,94.05A73.39,73.39,0,0,1,143.22,48.64,21.67,21.67,0,0,0,131,48.45c-4,1.15-5.81,3.11-7.89,5.37a24.46,24.46,0,0,1-7.17,5.78c-3.45,1.78-5.49,1.79-13.08,1.81-3.09,0-6.93,0-12.16.14-8.4.21-14.24.56-18.4,1.11a27.69,27.69,0,0,0-8.82-1.38,28.44,28.44,0,0,0-6.22.67,16.8,16.8,0,0,0-8.57,4.7,29.74,29.74,0,0,1-10.41,6.44,43,43,0,0,1-9.66,2.47c-3.38.54-5.83.92-8.72,3.6a11.16,11.16,0,0,0-3,4.51l-.13.29C10.83,85.53,7.81,87.25,5.6,90.3a13.23,13.23,0,0,0-1.89,3.75v0Z"/><path class="cls-6" d="M74-.26A73.37,73.37,0,0,0,3.7,94,13.21,13.21,0,0,1,5.6,90.3C8,87,11.34,85.38,16.74,84a11.77,11.77,0,0,1,3.13-4.8c5.07-4.68,8.81-2.36,18.39-6.06,11.29-4.37,10.23-9.18,19-11.15a29,29,0,0,1,15.05.71,182,182,0,0,1,18.4-1.11c18.43-.44,20.42.54,25.23-1.95,7.65-4,7.62-9,15.06-11.15a21.47,21.47,0,0,1,12.24.2A73.4,73.4,0,0,0,74-.26Z"/><path class="cls-4" d="M7.76,104.48c-.77-2-1.49-4-2.11-6.12a13.23,13.23,0,0,1,1.89-3.75c2.53-3.5,6.14-5,11.15-6.35A45.49,45.49,0,0,1,14.41,96a62.87,62.87,0,0,1-5.24,6.83c-.52.61-1,1.14-1.39,1.66v0Z"/><path class="cls-4" d="M14.4,96a46.75,46.75,0,0,0,4.29-7.71c-5.4,1.43-8.77,3.06-11.14,6.35a13.31,13.31,0,0,0-1.89,3.74q.93,3.12,2.11,6.12A86.4,86.4,0,0,0,14.4,96Z"/><path class="cls-7" d="M102.69,94.05c-1.16-5.6-2.93-8.61-5.75-9.79a9.57,9.57,0,0,0-3.77-.62l-1.22,0-1.2,0a7.18,7.18,0,0,1-5.36-1.77c-1.65-1.52-1.92-3.18-2.21-4.94a11.43,11.43,0,0,0-1.51-4.65A13.69,13.69,0,0,0,74.23,67a175.54,175.54,0,0,1,18.41-1.12c5.23-.12,9.07-.13,12.16-.14,7.58,0,9.62,0,13.06-1.81A24.32,24.32,0,0,0,125,58.12c2.08-2.26,3.88-4.22,7.9-5.37a21.21,21.21,0,0,1,5.8-.79,20.92,20.92,0,0,1,6.44,1,73.47,73.47,0,0,1,3.62,33.59c-2.58-6.31-6.33-10.31-11.17-11.87a15.44,15.44,0,0,0-4.73-.72c-7,0-13.75,4.29-17.36,8.55a9.78,9.78,0,0,0-1.43,2.08,10.7,10.7,0,0,1-1.51,2.22,26.52,26.52,0,0,1-9.89,7.25h0Z"/><path class="cls-7" d="M132.93,52.76c-7.44,2.14-7.41,7.19-15.06,11.15-4.82,2.49-6.8,1.51-25.23,2A183,183,0,0,0,74.23,67a13.73,13.73,0,0,1,7.45,5.36C84,76,82.4,79.15,85.4,81.9c3.51,3.22,7.61.71,11.54,2.35,2.61,1.09,4.51,3.76,5.76,9.79a26.52,26.52,0,0,0,9.89-7.25c1.8-2.16,1.22-2.29,2.93-4.3,4.63-5.46,13.91-10.46,22.1-7.83,5.94,1.92,9.26,7.18,11.17,11.88a74.15,74.15,0,0,0,.56-9.11A73.41,73.41,0,0,0,145.17,53,21.47,21.47,0,0,0,132.93,52.76Z"/></svg>