<svg xmlns="http://www.w3.org/2000/svg" xmlns:xlink="http://www.w3.org/1999/xlink" viewBox="0 0 383.63 567.41"><defs><style>.cls-1{fill:url(#linear-gradient);}.cls-2{fill:url(#linear-gradient-2);}.cls-3{fill:url(#linear-gradient-3);}.cls-4{fill:url(#linear-gradient-4);}</style><linearGradient id="linear-gradient" x1="-69.46" y1="136.94" x2="286.51" y2="481.28" gradientUnits="userSpaceOnUse"><stop offset="0" stop-color="#74fff9"/><stop offset="1" stop-color="#ff1fe9"/></linearGradient><linearGradient id="linear-gradient-2" x1="-83.13" y1="83.77" x2="239.85" y2="26.2" xlink:href="#linear-gradient"/><linearGradient id="linear-gradient-3" x1="-314.09" y1="136.94" x2="41.88" y2="481.28" gradientTransform="matrix(-1, 0, 0, 1, 139, 0)" xlink:href="#linear-gradient"/><linearGradient id="linear-gradient-4" x1="-327.75" y1="83.77" x2="-4.78" y2="26.2" gradientTransform="matrix(-1, 0, 0, 1, 139, 0)" xlink:href="#linear-gradient"/></defs><g id="Layer_2" data-name="Layer 2"><g id="Layer_1-2" data-name="Layer 1"><path class="cls-1" d="M151.63,133.41v434s-78.81-68.39-87-110c-5.89-29.9-18-142-55-181s43-141.48,64.45-143.62S151.63,133.41,151.63,133.41Z"/><circle class="cls-2" cx="104.26" cy="50.37" r="50.37"/><path class="cls-3" d="M232,133.41v434s78.81-68.39,87-110c5.89-29.9,18-142,55-181s-43-141.48-64.45-143.62S232,133.41,232,133.41Z"/><circle class="cls-4" cx="279.37" cy="50.37" r="50.37"/></g></g></svg>